<svg width="26" height="25" viewBox="0 0 26 25" fill="none" xmlns="http://www.w3.org/2000/svg">
<path d="M20.177 22.6502C20.3552 22.6502 20.5045 22.5904 20.625 22.4709C20.7455 22.3514 20.8057 22.1966 20.8057 22.0066C20.8057 21.8168 20.7448 21.6591 20.6228 21.5337C20.5009 21.4082 20.3559 21.3455 20.1878 21.3455C20.0024 21.3455 19.8502 21.4082 19.7314 21.5337C19.6126 21.6591 19.5532 21.8168 19.5532 22.0066C19.5532 22.1966 19.6126 22.3514 19.7314 22.4709C19.8502 22.5904 19.9988 22.6502 20.177 22.6502ZM19.7065 20.0743H20.6475V16.1373H19.7065V20.0743ZM1.79165 20.1323V20.9763V5.46748V20.1323ZM2.5911 22.1368C2.05896 22.1368 1.60947 21.9432 1.24263 21.5559C0.8758 21.1686 0.692383 20.6941 0.692383 20.1323V6.31148C0.692383 5.74968 0.8758 5.27515 1.24263 4.88787C1.60947 4.5006 2.05896 4.30696 2.5911 4.30696H8.48722V2.1969C8.48722 1.63599 8.67063 1.16168 9.03745 0.773944C9.40428 0.386236 9.85381 0.192383 10.386 0.192383H14.3833C14.9155 0.192383 15.365 0.386236 15.7318 0.773944C16.0986 1.16168 16.2821 1.63599 16.2821 2.1969V4.30696H22.1781C22.7103 4.30696 23.1598 4.5006 23.5266 4.88787C23.8935 5.27515 24.0769 5.74968 24.0769 6.31148V12.6355C23.9059 12.5153 23.731 12.4047 23.5522 12.3036C23.3735 12.2025 23.182 12.1053 22.9777 12.0121V6.31148C22.9777 6.06532 22.9027 5.8631 22.7528 5.70486C22.6029 5.5466 22.4114 5.46748 22.1781 5.46748H2.5911C2.35794 5.46748 2.16639 5.5466 2.0165 5.70486C1.8666 5.8631 1.79165 6.06532 1.79165 6.31148V20.1323C1.79165 20.3784 1.8666 20.5807 2.0165 20.7389C2.16639 20.8972 2.35794 20.9763 2.5911 20.9763H12.7868C12.8385 21.1867 12.8918 21.3872 12.9468 21.5777C13.0018 21.7682 13.0667 21.9546 13.1417 22.1368H2.5911ZM9.58652 4.30696H15.1828V2.1969C15.1828 1.95074 15.1078 1.74852 14.9579 1.59028C14.808 1.43202 14.6165 1.3529 14.3833 1.3529H10.386C10.1527 1.3529 9.96122 1.43202 9.81133 1.59028C9.66143 1.74852 9.58652 1.95074 9.58652 2.1969V4.30696ZM20.1795 24.8078C18.7565 24.8078 17.5461 24.281 16.5481 23.2274C15.5502 22.1739 15.0512 20.896 15.0512 19.3937C15.0512 17.8915 15.5502 16.6136 16.5481 15.5601C17.5461 14.5065 18.7565 13.9797 20.1795 13.9797C21.6024 13.9797 22.8129 14.5065 23.8108 15.5601C24.8087 16.6136 25.3078 17.8915 25.3078 19.3937C25.3078 20.896 24.8087 22.1739 23.8108 23.2274C22.8129 24.281 21.6024 24.8078 20.1795 24.8078Z" fill="white"/>
</svg>
